# xmcd
#
# Track frame offsets:
#	150
#	17458
#	35174
#	50866
#	71647
#	87931
#	105107
#	121017
#	140605
#	158707
#	177373
#	195634
#	213664
#
# Disc length: 3116 seconds
#
# Revision: 0
# Processed by: cddbd v1.5.2PL0 Copyright (c) Steve Scherf et al.
# Submitted via: dBpowerAMP V4.0
#
DISCID=b20c2a0d
DTITLE=Emmanuel MOIRE - Là où je pars
DYEAR=1900
DGENRE=
TTITLE0=Celui que j'étais
TTITLE1=Le sourire
TTITLE2=Je vis deux fois
TTITLE3=Là où je pars
TTITLE4=Ca me fait du bien
TTITLE5=Rien ni personne
TTITLE6=La femme qu'il me faut
TTITLE7=La fin
TTITLE8=Si c'était ça la vie
TTITLE9=Plus que jamais
TTITLE10=Merci
TTITLE11=Le sourire (version acoustique)
TTITLE12=Si c'était ça la vie (version acoustique)
EXTD=
EXTT0=
EXTT1=
EXTT2=
EXTT3=
EXTT4=
EXTT5=
EXTT6=
EXTT7=
EXTT8=
EXTT9=
EXTT10=
EXTT11=
EXTT12=
PLAYORDER=
